<!DOCTYPE svg PUBLIC "-//W3C//DTD SVG 1.1//EN" "http://www.w3.org/Graphics/SVG/1.1/DTD/svg11.dtd">

<!-- Uploaded to: SVG Repo, www.svgrepo.com, Transformed by: SVG Repo Mixer Tools -->
<svg fill="#b19df7" height="256px" width="256px" version="1.1" id="Capa_1" xmlns="http://www.w3.org/2000/svg" xmlns:xlink="http://www.w3.org/1999/xlink" viewBox="-5.8 -5.8 69.60 69.60" xml:space="preserve" stroke="#b19df7" stroke-width="0.00058">

<g id="SVGRepo_bgCarrier" stroke-width="0" transform="translate(0,0), scale(1)">

<path transform="translate(-5.8, -5.8), scale(2.175)" d="M16,31.115599953465992C18.25661629348229,31.032562293109805,19.450359917303267,28.3233572656758,21.337135209352088,27.08267545861919C22.965847123906173,26.011687699854694,25.081092793420396,25.730381787689954,26.38843770450222,24.284502621403128C27.716634674030388,22.815561785142144,28.93721297434664,20.875265611189082,28.7306581516631,18.90568964780887C28.51630039359185,16.86170983472053,25.490427932256047,15.924076341829014,25.29707952620791,13.878002267256779C25.059739277279455,11.366392577212945,28.23963323614299,9.198616393184864,27.583180861195704,6.76272150458446C27.008206066445403,4.6291651080236385,24.530336495516735,3.0381427205832727,22.327848016713624,2.860088199036344C19.976421914815514,2.6699931980609253,18.25483678681335,5.132729970463729,16,5.826309012042151C14.478992137809497,6.294165125380724,12.682893653449028,5.454631004675771,11.304975425468687,6.250681013552796C9.93009173692125,7.0449779103122445,9.87010277921572,9.144720372544457,8.601988960347743,10.100283065219076C6.782508870117245,11.471317169902639,3.4302333944233814,10.846815096373355,2.4661706390952656,12.910991764863677C1.5972663977216501,14.771422377168852,3.5848348231723537,16.82953876683846,4.635055502677169,18.593974418320176C5.510517040798155,20.064803911117846,7.12992038211725,20.893674094064423,8.069270457392356,22.324545764653113C9.123265930422129,23.9300518512368,9.183826640853402,26.056520836009113,10.470296761879727,27.482547090652076C11.966361741901743,29.14090503095253,13.768046567635746,31.197730084132328,16,31.115599953465992" fill="#282936" strokewidth="0"/>

</g>

<g id="SVGRepo_tracerCarrier" stroke-linecap="round" stroke-linejoin="round" stroke="#CCCCCC" stroke-width="0.46399999999999997"/>

<g id="SVGRepo_iconCarrier"> <g> <path d="M33.655,45.988c-0.232-0.31-0.497-0.533-0.793-0.67s-0.608-0.205-0.937-0.205c-0.337,0-0.658,0.063-0.964,0.191 s-0.579,0.344-0.82,0.649s-0.431,0.699-0.567,1.183c-0.137,0.483-0.21,1.075-0.219,1.777c0.009,0.684,0.08,1.267,0.212,1.75 s0.314,0.877,0.547,1.183s0.497,0.528,0.793,0.67s0.608,0.212,0.937,0.212c0.337,0,0.658-0.066,0.964-0.198s0.579-0.349,0.82-0.649 s0.431-0.695,0.567-1.183s0.21-1.082,0.219-1.784c-0.009-0.684-0.08-1.265-0.212-1.743S33.888,46.298,33.655,45.988z"/> <path d="M51.5,39V13.978c0-0.766-0.092-1.333-0.55-1.792L39.313,0.55C38.964,0.201,38.48,0,37.985,0H8.963 C7.777,0,6.5,0.916,6.5,2.926V39H51.5z M29.5,33c0,0.552-0.447,1-1,1s-1-0.448-1-1v-3c0-0.552,0.447-1,1-1s1,0.448,1,1V33z M37.5,3.391c0-0.458,0.553-0.687,0.877-0.363l10.095,10.095C48.796,13.447,48.567,14,48.109,14H37.5V3.391z M36.5,24v-4 c0-0.551-0.448-1-1-1c-0.553,0-1-0.448-1-1s0.447-1,1-1c1.654,0,3,1.346,3,3v4c0,1.103,0.897,2,2,2c0.553,0,1,0.448,1,1 s-0.447,1-1,1c-1.103,0-2,0.897-2,2v4c0,1.654-1.346,3-3,3c-0.553,0-1-0.448-1-1s0.447-1,1-1c0.552,0,1-0.449,1-1v-4 c0-1.2,0.542-2.266,1.382-3C37.042,26.266,36.5,25.2,36.5,24z M28.5,22c0.828,0,1.5,0.672,1.5,1.5S29.328,25,28.5,25 c-0.828,0-1.5-0.672-1.5-1.5S27.672,22,28.5,22z M16.5,26c1.103,0,2-0.897,2-2v-4c0-1.654,1.346-3,3-3c0.553,0,1,0.448,1,1 s-0.447,1-1,1c-0.552,0-1,0.449-1,1v4c0,1.2-0.542,2.266-1.382,3c0.84,0.734,1.382,1.8,1.382,3v4c0,0.551,0.448,1,1,1 c0.553,0,1,0.448,1,1s-0.447,1-1,1c-1.654,0-3-1.346-3-3v-4c0-1.103-0.897-2-2-2c-0.553,0-1-0.448-1-1S15.947,26,16.5,26z"/> <path d="M6.5,41v15c0,1.009,1.22,2,2.463,2h40.074c1.243,0,2.463-0.991,2.463-2V41H6.5z M18.021,51.566 c0,0.474-0.087,0.873-0.26,1.196s-0.405,0.583-0.697,0.779s-0.627,0.333-1.005,0.41c-0.378,0.077-0.768,0.116-1.169,0.116 c-0.2,0-0.436-0.021-0.704-0.062s-0.547-0.104-0.834-0.191s-0.563-0.185-0.827-0.294s-0.487-0.232-0.67-0.369l0.697-1.107 c0.091,0.063,0.221,0.13,0.39,0.198s0.354,0.132,0.554,0.191s0.41,0.111,0.629,0.157s0.424,0.068,0.615,0.068 c0.483,0,0.868-0.094,1.155-0.28s0.439-0.504,0.458-0.95v-7.711h1.668V51.566z M25.958,52.298c-0.15,0.342-0.362,0.643-0.636,0.902 s-0.61,0.467-1.012,0.622s-0.856,0.232-1.367,0.232c-0.219,0-0.444-0.012-0.677-0.034s-0.467-0.062-0.704-0.116 c-0.237-0.055-0.463-0.13-0.677-0.226s-0.398-0.212-0.554-0.349l0.287-1.176c0.128,0.073,0.289,0.144,0.485,0.212 s0.398,0.132,0.608,0.191s0.419,0.107,0.629,0.144s0.405,0.055,0.588,0.055c0.556,0,0.982-0.13,1.278-0.39s0.444-0.645,0.444-1.155 c0-0.31-0.104-0.574-0.314-0.793s-0.472-0.417-0.786-0.595s-0.654-0.355-1.019-0.533s-0.706-0.388-1.025-0.629 s-0.583-0.526-0.793-0.854s-0.314-0.738-0.314-1.23c0-0.446,0.082-0.843,0.246-1.189s0.385-0.641,0.663-0.882 s0.602-0.426,0.971-0.554s0.759-0.191,1.169-0.191c0.419,0,0.843,0.039,1.271,0.116s0.774,0.203,1.039,0.376 c-0.055,0.118-0.118,0.248-0.191,0.39s-0.142,0.273-0.205,0.396s-0.118,0.226-0.164,0.308s-0.073,0.128-0.082,0.137 c-0.055-0.027-0.116-0.063-0.185-0.109s-0.166-0.091-0.294-0.137s-0.296-0.077-0.506-0.096s-0.479-0.014-0.807,0.014 c-0.183,0.019-0.355,0.07-0.52,0.157s-0.31,0.193-0.438,0.321s-0.228,0.271-0.301,0.431s-0.109,0.313-0.109,0.458 c0,0.364,0.104,0.658,0.314,0.882s0.47,0.419,0.779,0.588s0.647,0.333,1.012,0.492s0.704,0.354,1.019,0.581 s0.576,0.513,0.786,0.854s0.314,0.781,0.314,1.319C26.184,51.603,26.108,51.956,25.958,52.298z M35.761,51.156 c-0.214,0.647-0.511,1.185-0.889,1.613s-0.82,0.752-1.326,0.971s-1.06,0.328-1.661,0.328s-1.155-0.109-1.661-0.328 s-0.948-0.542-1.326-0.971s-0.675-0.966-0.889-1.613s-0.321-1.395-0.321-2.242s0.107-1.593,0.321-2.235s0.511-1.178,0.889-1.606 s0.82-0.754,1.326-0.978s1.06-0.335,1.661-0.335s1.155,0.111,1.661,0.335s0.948,0.549,1.326,0.978s0.675,0.964,0.889,1.606 s0.321,1.388,0.321,2.235S35.975,50.509,35.761,51.156z M45.68,54h-1.668l-3.951-6.945V54h-1.668V43.924h1.668l3.951,6.945v-6.945 h1.668V54z"/> </g> </g>

</svg>